# xmcd
#
# Track frame offsets:
# 150
# 23357
# 47037
# 73548
# 90302
# 108248
#
# Disc length: 1758 seconds
#
# Revision: 0
# Processed by: cddbd v1.5PL3 Copyright (c) Steve Scherf et al.
# Submitted via: Audion 3.0.2 (http://www.panic.com/audion/)
#
DISCID=3a06dc06
DTITLE=The Bellakun - ...Cantar para Espantar la Soledad
DYEAR=1900
DGENRE=
TTITLE0=Gut gerüstet, für den Kampf gegen den Westen
TTITLE1=Coffinmate of Comfort
TTITLE2=Accumulated Moments (Esmirized)
TTITLE3=Stumbling on Steps
TTITLE4=Challenger (I'm Sinking)
TTITLE5=What We Both Want?
EXTD=
EXTT0=
EXTT1=
EXTT2=
EXTT3=
EXTT4=
EXTT5=
PLAYORDER=
